<svg id="logosandtypes_com" xmlns="http://www.w3.org/2000/svg" viewBox="0 0 150 150.2"><path d="M0 .2h150v150H0V.2z" fill="none"/><path d="M74.8 11C61.7 11 50.1 14.5 40 21.3l22.9 43.2c2.7-3.4 7.2-5.6 11.9-5.6 8.5 0 15.6 7 15.6 15.5S83.4 90 74.8 90c-6.3 0-11.2-3.4-13.5-8.9L31.8 27.5C19.2 39.3 11.3 56.3 11.3 74.4c0 34.9 28.5 63.4 63.5 63.4 34.9 0 63.4-28.5 63.4-63.4S109.7 11 74.8 11zm.1 110.5c-25.9 0-47.1-21.1-47.1-47.1 0-5.6 1-11 3-16.3l19.6 34c5.3 7.9 14 13.1 24.4 13.1 17 0 30.8-13.8 30.8-30.8S91.8 43.6 74.8 43.6c-2 0-3.9.3-6 .6l-7.7-14.5c4.3-1.5 9.4-2.4 13.8-2.4 25.7-.3 47.2 21.2 47.2 47.1 0 26-21.2 47.1-47.2 47.1z" fill-rule="evenodd" clip-rule="evenodd" fill="#e90000"/></svg>